<svg viewBox="0 0 300 157.3008" width="5000px" height="2621.6799418131513px" xmlns="http://www.w3.org/2000/svg" xmlns:xlink="http://www.w3.org/1999/xlink" preserveAspectRatio="none"><defs></defs><style>.a6izo4zJpcolor {fill:#FFFFFF;fill-opacity:1;}.aD6z1nYkhcolor {fill:#FFFFFF;fill-opacity:1;}.afxEKKCpmfillColor {fill:#FFFFFF;fill-opacity:1;}.asvOReAC_fillColor {fill:#FFFFFF;fill-opacity:1;}.icon1 {fill:#FFFFFF;fill-opacity:1;}.icon2 {fill:#D9D9D9;fill-opacity:1;}.icon3 {fill:#B4B4B4;fill-opacity:1;}.shapeStroke-str {stroke:#D9D9D9;stroke-opacity:1;}</style><g opacity="1" transform="rotate(0 199.1298 148.49880000000002)">
<svg width="28.0917" height="1.8728" x="199.1298" y="148.49880000000002" version="1.1" preserveAspectRatio="none" viewBox="0 0 28.0917 1.8728">
  <rect x="0" y="0" width="28.0917" height="1.8728" class="asvOReAC_fillColor shapeStroke-str" style="stroke-width:0;" rx="0%" ry="0%"></rect>
</svg>
</g><g opacity="1" transform="rotate(0 119.59800000000001 141.5695)">
<svg width="60.8041" height="15.7313" x="119.59800000000001" y="141.5695" version="1.1" preserveAspectRatio="none" viewBox="4.2 -29.68 145.64000000000001 37.68">
  <g transform="matrix(1 0 0 1 0 0)" class="a6izo4zJpcolor"><path d="M23.04-14.52Q25.48-13.84 26.88-12.06Q28.28-10.28 28.28-7.56L28.28-7.56Q28.28-3.92 25.54-1.96Q22.80 0 17.56 0L17.56 0L4.20 0L4.20-28L16.76-28Q21.56-28 24.18-26.08Q26.80-24.16 26.80-20.76L26.80-20.76Q26.80-18.56 25.78-16.96Q24.76-15.36 23.04-14.52L23.04-14.52ZM16.40-24.76L8.20-24.76L8.20-15.80L16.40-15.80Q19.48-15.80 21.14-16.94Q22.80-18.08 22.80-20.28L22.80-20.28Q22.80-22.48 21.14-23.62Q19.48-24.76 16.40-24.76L16.40-24.76ZM17.40-3.24Q20.80-3.24 22.52-4.36Q24.24-5.48 24.24-7.88L24.24-7.88Q24.24-12.56 17.40-12.56L17.40-12.56L8.20-12.56L8.20-3.24L17.40-3.24Z M43.24-21.40Q47.64-21.40 49.98-19.24Q52.32-17.08 52.32-12.80L52.32-12.80L52.32 0L48.68 0L48.68-2.80Q47.72-1.32 45.94-0.54Q44.16 0.24 41.72 0.24L41.72 0.24Q38.16 0.24 36.02-1.48Q33.88-3.20 33.88-6L33.88-6Q33.88-8.80 35.92-10.50Q37.96-12.20 42.40-12.20L42.40-12.20L48.48-12.20L48.48-12.96Q48.48-15.44 47.04-16.76Q45.60-18.08 42.80-18.08L42.80-18.08Q40.92-18.08 39.12-17.46Q37.32-16.84 36.08-15.80L36.08-15.80L34.48-18.68Q36.12-20 38.40-20.70Q40.68-21.40 43.24-21.40L43.24-21.40ZM42.36-2.72Q44.56-2.72 46.16-3.70Q47.76-4.68 48.48-6.48L48.48-6.48L48.48-9.44L42.56-9.44Q37.68-9.44 37.68-6.16L37.68-6.16Q37.68-4.56 38.92-3.64Q40.16-2.72 42.36-2.72L42.36-2.72Z M77.24 0L69.28-9.88L64.88-5.80L64.88 0L61.04 0L61.04-29.68L64.88-29.68L64.88-10.64L76.44-21.20L81.08-21.20L72.16-12.44L81.96 0L77.24 0Z M105.56-10.48Q105.56-10.04 105.48-9.32L105.48-9.32L88.28-9.32Q88.64-6.52 90.74-4.82Q92.84-3.12 95.96-3.12L95.96-3.12Q99.76-3.12 102.08-5.68L102.08-5.68L104.20-3.20Q102.76-1.52 100.62-0.64Q98.48 0.24 95.84 0.24L95.84 0.24Q92.48 0.24 89.88-1.14Q87.28-2.52 85.86-5Q84.44-7.48 84.44-10.60L84.44-10.60Q84.44-13.68 85.82-16.16Q87.20-18.64 89.62-20.02Q92.04-21.40 95.08-21.40L95.08-21.40Q98.12-21.40 100.50-20.02Q102.88-18.64 104.22-16.16Q105.56-13.68 105.56-10.48L105.56-10.48ZM95.08-18.16Q92.32-18.16 90.46-16.48Q88.60-14.80 88.28-12.08L88.28-12.08L101.88-12.08Q101.56-14.76 99.70-16.46Q97.84-18.16 95.08-18.16L95.08-18.16Z M116.16-17.64Q117.16-19.48 119.12-20.44Q121.08-21.40 123.88-21.40L123.88-21.40L123.88-17.68Q123.56-17.72 123-17.72L123-17.72Q119.88-17.72 118.10-15.86Q116.32-14 116.32-10.56L116.32-10.56L116.32 0L112.48 0L112.48-21.20L116.16-21.20L116.16-17.64Z M146.08-21.20L149.84-21.20L139.56 2.12Q138.20 5.36 136.38 6.68Q134.56 8 132 8L132 8Q130.44 8 128.98 7.50Q127.52 7 126.56 6.04L126.56 6.04L128.20 3.16Q129.84 4.72 132 4.72L132 4.72Q133.40 4.72 134.34 3.98Q135.28 3.24 136.04 1.44L136.04 1.44L136.72-0.04L127.36-21.20L131.36-21.20L138.76-4.24L146.08-21.20Z"></path></g>
</svg>
</g><g opacity="1" transform="rotate(0 0 87.25889999999998)">
<svg width="300" height="37.4556" x="0" y="87.25889999999998" version="1.1" preserveAspectRatio="none" viewBox="1.24 -25.12 205.04 25.6">
  <g transform="matrix(1 0 0 1 0 0)" class="aD6z1nYkhcolor"><path d="M7.76-21.72L7.76-3.40Q7.76-2.28 7.98-1.78Q8.20-1.28 8.80-1.10Q9.40-0.92 10.68-0.92L10.68-0.92L14.08-0.92Q16.60-0.92 18.26-2.42Q19.92-3.92 20.48-6.48L20.48-6.48Q20.48-6.60 20.70-6.58Q20.92-6.56 20.92-6.44L20.92-6.44Q20.56-2.92 20.56-0.60L20.56-0.60Q20.56-0.28 20.42-0.14Q20.28 0 19.96 0L19.96 0L1.32 0Q1.24 0 1.24-0.24Q1.24-0.48 1.32-0.48L1.32-0.48Q2.76-0.48 3.42-0.68Q4.08-0.88 4.32-1.46Q4.56-2.04 4.56-3.24L4.56-3.24L4.56-21.76Q4.56-22.96 4.32-23.52Q4.08-24.08 3.42-24.30Q2.76-24.52 1.32-24.52L1.32-24.52Q1.24-24.52 1.24-24.76Q1.24-25 1.32-25L1.32-25L3.32-24.96Q5.08-24.88 6.16-24.88L6.16-24.88Q7.24-24.88 9-24.96L9-24.96L11-25Q11.08-25 11.08-24.76Q11.08-24.52 11-24.52L11-24.52Q9.60-24.52 8.92-24.30Q8.24-24.08 8-23.50Q7.76-22.92 7.76-21.72L7.76-21.72Z M38-5.32Q38.04-5.44 38.26-5.44Q38.48-5.44 38.48-5.32L38.48-5.32Q38.20-2.44 38.20-0.60L38.20-0.60Q38.20-0.28 38.08-0.14Q37.96 0 37.60 0L37.60 0L22.80 0Q22.72 0 22.72-0.24Q22.72-0.48 22.80-0.48L22.80-0.48Q24.08-0.48 24.66-0.68Q25.24-0.88 25.46-1.46Q25.68-2.04 25.68-3.24L25.68-3.24L25.68-15.48Q25.68-16.68 25.46-17.24Q25.24-17.80 24.64-18.02Q24.04-18.24 22.80-18.24L22.80-18.24Q22.72-18.24 22.72-18.48Q22.72-18.72 22.80-18.72L22.80-18.72L36.88-18.72Q37.28-18.72 37.28-18.40L37.28-18.40L37.32-15.92Q37.36-15.16 37.36-14L37.36-14Q37.36-13.88 37.12-13.88Q36.88-13.88 36.88-14L36.88-14Q36.52-15.84 35.22-17.02Q33.92-18.20 32.24-18.20L32.24-18.20L31.36-18.20Q30.16-18.20 29.58-17.98Q29-17.76 28.80-17.20Q28.60-16.64 28.60-15.44L28.60-15.44L28.60-10Q32.20-10.04 33.62-10.22Q35.04-10.40 35.24-10.40L35.24-10.40Q35.48-10.40 35.48-9.52L35.48-9.52Q35.48-8.60 35.24-8.60L35.24-8.60Q35.08-8.60 33.64-8.80Q32.20-9 28.60-9.08L28.60-9.08L28.60-3.40Q28.60-2.24 28.80-1.66Q29-1.08 29.58-0.86Q30.16-0.64 31.36-0.64L31.36-0.64L32.84-0.64Q34.56-0.64 36-1.96Q37.44-3.28 38-5.32L38-5.32Z M57.40-3.40Q57.40-2.12 57.72-1.54Q58.04-0.96 58.94-0.72Q59.84-0.48 61.84-0.48L61.84-0.48Q61.96-0.48 61.96-0.24Q61.96 0 61.84 0L61.84 0Q60.20 0 59.28-0.04L59.28-0.04L55.80-0.08L53.04-0.04Q52.28 0 50.96 0L50.96 0Q50.88 0 50.88-0.24Q50.88-0.48 50.96-0.48L50.96-0.48Q52.40-0.48 53.06-0.68Q53.72-0.88 53.96-1.46Q54.20-2.04 54.20-3.24L54.20-3.24L54.20-21.76Q54.20-22.96 53.96-23.52Q53.72-24.08 53.06-24.30Q52.40-24.52 50.96-24.52L50.96-24.52Q50.88-24.52 50.88-24.76Q50.88-25 50.96-25L50.96-25L53.04-24.96Q54.72-24.88 55.76-24.88L55.76-24.88Q56.72-24.88 58.04-25L58.04-25Q58.52-25 59.54-25.06Q60.56-25.12 61.32-25.12L61.32-25.12Q65.08-25.12 67.36-23.46Q69.64-21.80 69.64-18.44L69.64-18.44Q69.64-15.84 68.34-14.04Q67.04-12.24 65.02-11.36Q63-10.48 60.84-10.48L60.84-10.48Q59.68-10.48 58.92-10.68L58.92-10.68Q58.80-10.68 58.80-10.88L58.80-10.88Q58.80-11 58.86-11.12Q58.92-11.24 59-11.20L59-11.20Q59.64-11.04 60.44-11.04L60.44-11.04Q62.80-11.04 64.44-12.76Q66.08-14.48 66.08-17.72L66.08-17.72Q66.08-20.88 64.48-22.66Q62.88-24.44 60.24-24.44L60.24-24.44Q59.04-24.44 58.46-24.26Q57.88-24.08 57.64-23.50Q57.40-22.92 57.40-21.68L57.40-21.68L57.40-3.40Z M91.16-0.48Q91.36-0.48 91.36-0.24Q91.36 0 91.16 0L91.16 0Q90.40 0 88.80-0.08L88.80-0.08Q87.12-0.16 86.40-0.16L86.40-0.16Q85.80-0.16 84.60-0.08L84.60-0.08Q83.48 0 82.88 0L82.88 0Q82.72 0 82.72-0.24Q82.72-0.48 82.88-0.48L82.88-0.48Q83.88-0.48 84.34-0.74Q84.80-1 84.80-1.56L84.80-1.56Q84.80-2.28 84.28-3.36L84.28-3.36L81.68-8.96L76.36-8.96L74.72-4.92Q74.04-3.24 74.04-2.36L74.04-2.36Q74.04-1.36 74.74-0.92Q75.44-0.48 76.92-0.48L76.92-0.48Q77.12-0.48 77.12-0.24Q77.12 0 76.92 0L76.92 0Q76.32 0 75.28-0.08L75.28-0.08Q74.16-0.16 73.20-0.16L73.20-0.16Q72.20-0.16 70.84-0.08L70.84-0.08Q69.64 0 68.92 0L68.92 0Q68.72 0 68.72-0.24Q68.72-0.48 68.92-0.48L68.92-0.48Q70.16-0.48 70.90-0.84Q71.64-1.20 72.26-2.18Q72.88-3.16 73.76-5.28L73.76-5.28L79.60-19.32Q79.68-19.48 79.84-19.48Q80-19.48 80.08-19.32L80.08-19.32L86.48-5.48Q87.52-3.28 88.16-2.26Q88.80-1.24 89.46-0.86Q90.12-0.48 91.16-0.48L91.16-0.48ZM78.84-15.04L76.72-9.80L81.28-9.80L78.84-15.04Z M96-18.12Q94-18.12 92.92-17.02Q91.84-15.92 91.28-13.40L91.28-13.40Q91.28-13.32 91.06-13.32Q90.84-13.32 90.84-13.40L90.84-13.40Q91-14.64 91.16-16.60Q91.32-18.56 91.32-19.60L91.32-19.60Q91.32-19.80 91.54-19.80Q91.76-19.80 91.76-19.60L91.76-19.60Q91.76-19.08 92.36-18.94Q92.96-18.80 93.88-18.80L93.88-18.80Q97.32-18.72 99.92-18.72L99.92-18.72L103.40-18.76Q104.08-18.80 105.24-18.80L105.24-18.80Q106.76-18.80 107.46-18.98Q108.16-19.16 108.36-19.76L108.36-19.76Q108.44-19.88 108.64-19.88Q108.84-19.88 108.84-19.76L108.84-19.76Q108.56-14.60 108.56-13.40L108.56-13.40Q108.56-13.32 108.34-13.32Q108.12-13.32 108.12-13.40L108.12-13.40Q107.96-15.84 106.92-16.98Q105.88-18.12 103.84-18.12L103.84-18.12Q102.36-18.12 101.88-17.58Q101.40-17.04 101.40-15.48L101.40-15.48L101.40-3.24Q101.40-2 101.62-1.44Q101.84-0.88 102.52-0.68Q103.20-0.48 104.68-0.48L104.68-0.48Q104.76-0.48 104.76-0.24Q104.76 0 104.68 0L104.68 0Q103.36 0 102.64-0.04L102.64-0.04L99.84-0.08L97.08-0.04Q96.32 0 95 0L95 0Q94.92 0 94.92-0.24Q94.92-0.48 95-0.48L95-0.48Q96.48-0.48 97.16-0.68Q97.84-0.88 98.10-1.46Q98.36-2.04 98.36-3.24L98.36-3.24L98.36-15.56Q98.36-16.68 98.20-17.20Q98.04-17.72 97.56-17.92Q97.08-18.12 96-18.12L96-18.12Z M117.20-3.24Q117.20-2.04 117.40-1.46Q117.60-0.88 118.18-0.68Q118.76-0.48 120.04-0.48L120.04-0.48Q120.16-0.48 120.16-0.24Q120.16 0 120.04 0L120.04 0Q118.88 0 118.24-0.04L118.24-0.04L115.68-0.08L113.20-0.04Q112.52 0 111.32 0L111.32 0Q111.24 0 111.24-0.24Q111.24-0.48 111.32-0.48L111.32-0.48Q112.60-0.48 113.20-0.68Q113.80-0.88 114.02-1.46Q114.24-2.04 114.24-3.24L114.24-3.24L114.24-15.48Q114.24-16.68 114.02-17.24Q113.80-17.80 113.20-18.02Q112.60-18.24 111.32-18.24L111.32-18.24Q111.24-18.24 111.24-18.48Q111.24-18.72 111.32-18.72L111.32-18.72L113.20-18.68Q114.72-18.60 115.68-18.60L115.68-18.60Q116.68-18.60 118.28-18.68L118.28-18.68L120.04-18.72Q120.16-18.72 120.16-18.48Q120.16-18.24 120.04-18.24L120.04-18.24Q118.80-18.24 118.22-18Q117.64-17.76 117.42-17.18Q117.20-16.60 117.20-15.40L117.20-15.40L117.20-3.24Z M126.64-15.56Q126.64-14.40 127.26-13.52Q127.88-12.64 128.76-12.06Q129.64-11.48 131.24-10.64L131.24-10.64Q132.88-9.80 133.90-9.12Q134.92-8.44 135.62-7.42Q136.32-6.40 136.32-5L136.32-5Q136.32-3.48 135.46-2.22Q134.60-0.96 133.04-0.24Q131.48 0.48 129.44 0.48L129.44 0.48Q127.92 0.48 126.54 0.10Q125.16-0.28 124.24-0.92L124.24-0.92Q123.92-1.12 123.92-1.72L123.92-1.72L123.56-5.88Q123.56-6.04 123.76-6.08Q123.96-6.12 124.04-5.96L124.04-5.96Q124.84-3.64 126.50-1.94Q128.16-0.24 130.20-0.24L130.20-0.24Q131.52-0.24 132.48-1.02Q133.44-1.80 133.44-3.44L133.44-3.44Q133.44-4.72 132.80-5.70Q132.16-6.68 131.20-7.34Q130.24-8 128.72-8.84L128.72-8.84Q127.16-9.68 126.20-10.34Q125.24-11 124.58-11.98Q123.92-12.96 123.92-14.28L123.92-14.28Q123.92-16.56 125.78-17.88Q127.64-19.20 130.28-19.20L130.28-19.20Q132.52-19.20 134.56-18.28L134.56-18.28Q134.92-18.12 135.02-17.98Q135.12-17.84 135.16-17.56L135.16-17.56L135.32-14Q135.32-13.84 135.12-13.80Q134.92-13.76 134.84-13.88L134.84-13.88Q134.64-14.76 133.94-15.84Q133.24-16.92 132.10-17.70Q130.96-18.48 129.56-18.48L129.56-18.48Q128.12-18.48 127.38-17.68Q126.64-16.88 126.64-15.56L126.64-15.56Z M142.72-15.56Q142.72-14.40 143.34-13.52Q143.96-12.64 144.84-12.06Q145.72-11.48 147.32-10.64L147.32-10.64Q148.96-9.80 149.98-9.12Q151-8.44 151.70-7.42Q152.40-6.40 152.40-5L152.40-5Q152.40-3.48 151.54-2.22Q150.68-0.96 149.12-0.24Q147.56 0.48 145.52 0.48L145.52 0.48Q144 0.48 142.62 0.10Q141.24-0.28 140.32-0.92L140.32-0.92Q140-1.12 140-1.72L140-1.72L139.64-5.88Q139.64-6.04 139.84-6.08Q140.04-6.12 140.12-5.96L140.12-5.96Q140.92-3.64 142.58-1.94Q144.24-0.24 146.28-0.24L146.28-0.24Q147.60-0.24 148.56-1.02Q149.52-1.80 149.52-3.44L149.52-3.44Q149.52-4.72 148.88-5.70Q148.24-6.68 147.28-7.34Q146.32-8 144.80-8.84L144.80-8.84Q143.24-9.68 142.28-10.34Q141.32-11 140.66-11.98Q140-12.96 140-14.28L140-14.28Q140-16.56 141.86-17.88Q143.72-19.20 146.36-19.20L146.36-19.20Q148.60-19.20 150.64-18.28L150.64-18.28Q151-18.12 151.10-17.98Q151.20-17.84 151.24-17.56L151.24-17.56L151.40-14Q151.40-13.84 151.20-13.80Q151-13.76 150.92-13.88L150.92-13.88Q150.72-14.76 150.02-15.84Q149.32-16.92 148.18-17.70Q147.04-18.48 145.64-18.48L145.64-18.48Q144.20-18.48 143.46-17.68Q142.72-16.88 142.72-15.56L142.72-15.56Z M161.20-3.24Q161.20-2.04 161.40-1.46Q161.60-0.88 162.18-0.68Q162.76-0.48 164.04-0.48L164.04-0.48Q164.16-0.48 164.16-0.24Q164.16 0 164.04 0L164.04 0Q162.88 0 162.24-0.04L162.24-0.04L159.68-0.08L157.20-0.04Q156.52 0 155.32 0L155.32 0Q155.24 0 155.24-0.24Q155.24-0.48 155.32-0.48L155.32-0.48Q156.60-0.48 157.20-0.68Q157.80-0.88 158.02-1.46Q158.24-2.04 158.24-3.24L158.24-3.24L158.24-15.48Q158.24-16.68 158.02-17.24Q157.80-17.80 157.20-18.02Q156.60-18.24 155.32-18.24L155.32-18.24Q155.24-18.24 155.24-18.48Q155.24-18.72 155.32-18.72L155.32-18.72L157.20-18.68Q158.72-18.60 159.68-18.60L159.68-18.60Q160.68-18.60 162.28-18.68L162.28-18.68L164.04-18.72Q164.16-18.72 164.16-18.48Q164.16-18.24 164.04-18.24L164.04-18.24Q162.80-18.24 162.22-18Q161.64-17.76 161.42-17.18Q161.20-16.60 161.20-15.40L161.20-15.40L161.20-3.24Z M182.12-5.32Q182.16-5.44 182.38-5.44Q182.60-5.44 182.60-5.32L182.60-5.32Q182.32-2.44 182.32-0.60L182.32-0.60Q182.32-0.28 182.20-0.14Q182.08 0 181.72 0L181.72 0L166.92 0Q166.84 0 166.84-0.24Q166.84-0.48 166.92-0.48L166.92-0.48Q168.20-0.48 168.78-0.68Q169.36-0.88 169.58-1.46Q169.80-2.04 169.80-3.24L169.80-3.24L169.80-15.48Q169.80-16.68 169.58-17.24Q169.36-17.80 168.76-18.02Q168.16-18.24 166.92-18.24L166.92-18.24Q166.84-18.24 166.84-18.48Q166.84-18.72 166.92-18.72L166.92-18.72L181.00-18.72Q181.40-18.72 181.40-18.40L181.40-18.40L181.44-15.92Q181.48-15.16 181.48-14L181.48-14Q181.48-13.88 181.24-13.88Q181.00-13.88 181.00-14L181.00-14Q180.64-15.84 179.34-17.02Q178.04-18.20 176.36-18.20L176.36-18.20L175.48-18.20Q174.28-18.20 173.70-17.98Q173.12-17.76 172.92-17.20Q172.72-16.64 172.72-15.44L172.72-15.44L172.72-10Q176.32-10.04 177.74-10.22Q179.16-10.40 179.36-10.40L179.36-10.40Q179.60-10.40 179.60-9.52L179.60-9.52Q179.60-8.60 179.36-8.60L179.36-8.60Q179.20-8.60 177.76-8.80Q176.32-9 172.72-9.08L172.72-9.08L172.72-3.40Q172.72-2.24 172.92-1.66Q173.12-1.08 173.70-0.86Q174.28-0.64 175.48-0.64L175.48-0.64L176.96-0.64Q178.68-0.64 180.12-1.96Q181.56-3.28 182.12-5.32L182.12-5.32Z M206.16-0.48Q206.28-0.48 206.28-0.24Q206.28 0 206.16 0L206.16 0L200.88 0Q200.24 0 198.48-2.40Q196.72-4.80 194.32-9L194.32-9Q193.48-8.88 192.64-8.88L192.64-8.88Q191.80-8.88 191.36-8.92L191.36-8.92L191.36-3.24Q191.36-2 191.56-1.44Q191.76-0.88 192.32-0.68Q192.88-0.48 194.16-0.48L194.16-0.48Q194.28-0.48 194.28-0.24Q194.28 0 194.16 0L194.16 0Q193.04 0 192.40-0.04L192.40-0.04L189.84-0.08L187.36-0.04Q186.68 0 185.48 0L185.48 0Q185.40 0 185.40-0.24Q185.40-0.48 185.48-0.48L185.48-0.48Q186.76-0.48 187.34-0.68Q187.92-0.88 188.14-1.46Q188.36-2.04 188.36-3.24L188.36-3.24L188.36-15.48Q188.36-16.68 188.14-17.24Q187.92-17.80 187.34-18.02Q186.76-18.24 185.56-18.24L185.56-18.24Q185.44-18.24 185.44-18.48Q185.44-18.72 185.56-18.72L185.56-18.72L187.40-18.68Q188.92-18.60 189.84-18.60L189.84-18.60Q190.60-18.60 191.22-18.64Q191.84-18.68 192.28-18.72L192.28-18.72Q193.52-18.84 194.64-18.84L194.64-18.84Q197.40-18.84 198.86-17.84Q200.32-16.84 200.32-14.96L200.32-14.96Q200.32-13.36 199.38-12.02Q198.44-10.68 196.80-9.84L196.80-9.84Q199.00-6.20 200.54-4.20Q202.08-2.20 203.40-1.34Q204.72-0.48 206.16-0.48L206.16-0.48ZM191.36-9.68Q192.24-9.60 192.92-9.60L192.92-9.60Q195.32-9.60 196.26-10.68Q197.20-11.76 197.20-13.88L197.20-13.88Q197.20-18.20 193.64-18.20L193.64-18.20Q192.24-18.20 191.80-17.60Q191.36-17 191.36-15.40L191.36-15.40L191.36-9.68Z"></path></g>
</svg>
</g><g opacity="1" transform="rotate(0 72.77850000000001 148.49880000000002)">
<svg width="28.0917" height="1.8728" x="72.77850000000001" y="148.49880000000002" version="1.1" preserveAspectRatio="none" viewBox="0 0 28.0917 1.8728">
  <rect x="0" y="0" width="28.0917" height="1.8728" class="afxEKKCpmfillColor shapeStroke-str" style="stroke-width:0;" rx="0%" ry="0%"></rect>
</svg>
</g><g opacity="0.2" transform="rotate(28 137.4142 0)">
<svg width="66.69" height="71.8084" x="137.4142" y="0" version="1.1" preserveAspectRatio="none" viewBox="26.988739013671875 26.999576568603516 45.74860382080078 49.25985336303711">
  <g transform="matrix(1 0 0 1 0 0)" class="icon1"><g><path fill-rule="evenodd" d="M72.64 33.85a6.58 6.58 0 0 0-6-5.78C62.37 27.42 58 27.3 54.08 27a20 20 0 0 0-11.72 3.7 4.49 4.49 0 0 1-2 .8c-5.62.63-11.9 7.1-12.3 12.78a14.62 14.62 0 0 0 .35 2c.34 1.65-.25 2.89-.57 4.81-.36 2.13-.59 4.27-.83 6.42a3.94 3.94 0 0 0 .13 1.49c.47 1.57 1 3.12 1.51 4.68s.85 3.28 1.45 4.85a11.52 11.52 0 0 0 6.9 7.26c4.09 1.46 8.16-.51 7.69-5.57a16.36 16.36 0 0 1 .63-5.49c.77-1.92 2.44-3.62 3.73-5.73a9.05 9.05 0 0 1 2.44-2.34 15.78 15.78 0 0 0 3-1.84 14.3 14.3 0 0 0 3.17-3.33c.79-1.2 1.79-2.67 1.84-4 .08-2.39.66-3.75 2-4.67a26.28 26.28 0 0 1 3.54-2.11c1.79-.91 1.8-1.46 3.68-1.73 3.17-.49 4.39-1.98 3.92-5.13zm-29.35 31a49.92 49.92 0 0 0-.84 6.2 2.87 2.87 0 0 1-3.22 3 7.94 7.94 0 0 1-6.35-4.36c-1.32-2.88-2.54-6.73-3.58-9.72.2-.16 1.29.19 1.71.16 3.76.25 7.47.75 10.85 2.68.82.41 1.61 1.03 1.44 2.01zm1.31-2.55c-4.55-3.36-9.9-3.86-15.6-4.3a45.77 45.77 0 0 1 1.54-9.28c.09-.38.45-1.56 2.33-1.54a18.48 18.48 0 0 1 5.22 1.21c4 1.42 8.29 4.67 11.42 7.41-1.65 1-3.42 4.91-4.91 6.5zm11.8-12.67a45.3 45.3 0 0 1-4 4.16 2.17 2.17 0 0 1-2-.06C49.2 53 48.15 51.93 47 51c-3.78-2.91-7.7-5.52-12.62-6-1.14-.12-2.3 0-3.58 0 0-6.13 6.89-11.74 12.68-10.43a17.9 17.9 0 0 1 13.11 10.78c.6 1.35.98 2.94-.18 4.28zM68.12 37c-2.37.5-5.62 3-7 3.6a31 31 0 0 0-3 1.9c-2.72-5.3-8.26-8.35-14.3-10.23 3.8-2.09 8.61-3.7 12.41-2.9 1.59.34 5.11 1.66 6.3 3 2.6 2.26 2.53.57 1.45-.47a13.66 13.66 0 0 0-2.8-2.46c2.09.1 6.06.56 7.88 1.93a4.64 4.64 0 0 1 1.45 2.9A2.69 2.69 0 0 1 68.12 37z"></path></g></g>
</svg>
</g></svg>